<svg width="1145" height="351" viewBox="0 0 1145 351" fill="none" xmlns="http://www.w3.org/2000/svg">
    <g clip-path="url(#clip0_307_3982)">
        <path
            d="M276.59 274.98C250.82 301.18 214.98 317.42 175.32 317.42C96.85 317.42 33.22 253.8 33.22 175.32C33.22 96.84 96.85 33.24 175.32 33.24C222.35 33.24 264.05 56.1 289.9 91.3C293.84 90.79 297.86 90.53 301.94 90.53C312.2 90.53 322.08 92.17 331.32 95.22C302.23 38.67 243.3 0 175.32 0C78.49 0 0 78.49 0 175.32C0 272.15 78.49 350.64 175.32 350.64C234.22 350.64 286.31 321.61 318.12 277.07C312.86 277.97 307.45 278.45 301.93 278.45C293.15 278.45 284.65 277.24 276.58 274.98H276.59Z"
            fill="#87D068" />
        <path
            d="M221.81 233.57C209.06 243.76 192.91 249.85 175.32 249.85C134.15 249.85 100.78 216.48 100.78 175.31C100.78 134.14 134.15 100.79 175.32 100.79C196.78 100.79 216.12 109.86 229.72 124.39C237.15 115.47 246.2 107.95 256.42 102.27C236.46 80.1 207.52 66.17 175.33 66.17C115.05 66.17 66.1904 115.04 66.1904 175.31C66.1904 235.58 115.06 284.45 175.33 284.45C201.85 284.45 226.16 275 245.06 259.26C235.82 252.2 227.91 243.49 221.82 233.56L221.81 233.57Z"
            fill="#1677FF" />
        <path
            d="M350.606 185.131C350.968 158.237 329.459 136.142 302.565 135.781C275.671 135.419 253.576 156.928 253.215 183.822C252.854 210.716 274.362 232.811 301.256 233.172C328.15 233.534 350.245 212.025 350.606 185.131Z"
            fill="#1677FF" />
        <path
            d="M475.24 176.1C455.19 176.1 438.64 169.44 425.57 156.12C412.5 142.8 405.97 126.37 405.97 106.83C405.97 87.2901 412.5 70.7101 425.57 57.4501C438.64 44.1901 455.19 37.5601 475.24 37.5601C487.29 37.5601 498.42 40.3801 508.64 46.0301C518.85 51.6801 526.81 59.3201 532.52 68.9601L509.87 82.0901C506.57 76.1301 501.88 71.4701 495.79 68.1001C489.7 64.7401 482.85 63.0601 475.24 63.0601C462.3 63.0601 451.86 67.1201 443.94 75.2401C436.01 83.3601 432.05 93.8901 432.05 106.83C432.05 119.77 436.01 130.11 443.94 138.23C451.87 146.35 462.3 150.41 475.24 150.41C482.85 150.41 489.73 148.73 495.89 145.37C502.04 142.01 506.7 137.41 509.88 131.57L532.53 144.7C526.82 154.34 518.89 161.99 508.74 167.63C498.59 173.28 487.43 176.1 475.25 176.1H475.24Z"
            fill="#282828" />
        <path
            d="M637.58 173.43L629.11 149.45H574.39L566.4 173.43H538.05L584.67 40.23H617.21L664.2 173.43H637.58ZM582.95 124.91H620.44L601.22 70.49L582.95 124.91Z"
            fill="#282828" />
        <path
            d="M752.12 173.43L725.19 127.19H705.3V173.43H679.04V40.23H732.32C744.62 40.23 755.09 44.54 763.72 53.17C772.35 61.8 776.66 72.2 776.66 84.38C776.66 92.63 774.31 100.27 769.62 107.31C764.93 114.35 758.71 119.65 750.97 123.2L780.46 173.44H752.11L752.12 173.43ZM705.3 64.78V104.17H732.32C737.27 104.17 741.52 102.24 745.07 98.37C748.62 94.5 750.4 89.84 750.4 84.38C750.4 78.92 748.62 74.29 745.07 70.49C741.52 66.68 737.27 64.78 732.32 64.78H705.3Z"
            fill="#282828" />
        <path
            d="M824.05 148.31H880.19V173.43H797.8V40.23H879.24V65.35H824.06V93.7H874.49V118.44H824.06V148.32L824.05 148.31Z"
            fill="#282828" />
        <path
            d="M457.67 311.34C442.71 311.34 430.36 306.37 420.61 296.43C410.86 286.49 405.98 274.23 405.98 259.65C405.98 245.07 410.86 232.69 420.61 222.8C430.36 212.91 442.71 207.96 457.67 207.96C466.66 207.96 474.97 210.07 482.59 214.28C490.21 218.49 496.15 224.2 500.41 231.39L483.51 241.19C481.05 236.74 477.55 233.26 473 230.75C468.46 228.24 463.34 226.99 457.66 226.99C448 226.99 440.22 230.02 434.3 236.08C428.38 242.14 425.42 250 425.42 259.65C425.42 269.3 428.38 277.02 434.3 283.08C440.22 289.14 448 292.17 457.66 292.17C463.34 292.17 468.47 290.92 473.07 288.41C477.66 285.9 481.14 282.47 483.51 278.11L500.41 287.91C496.15 295.11 490.23 300.81 482.66 305.02C475.08 309.23 466.76 311.34 457.67 311.34Z"
            fill="#282828" />
        <path
            d="M596.54 296.36C586.5 306.35 574.29 311.34 559.9 311.34C545.51 311.34 533.32 306.35 523.33 296.36C513.34 286.37 508.35 274.14 508.35 259.65C508.35 245.16 513.34 232.93 523.33 222.94C533.32 212.95 545.5 207.96 559.9 207.96C574.3 207.96 586.5 212.95 596.54 222.94C606.57 232.93 611.59 245.16 611.59 259.65C611.59 274.14 606.57 286.37 596.54 296.36ZM537.04 283.01C543.19 289.12 550.81 292.17 559.9 292.17C568.99 292.17 576.61 289.12 582.76 283.01C588.91 276.9 591.99 269.12 591.99 259.65C591.99 250.18 588.91 242.38 582.76 236.22C576.61 230.07 568.99 226.99 559.9 226.99C550.81 226.99 543.19 230.07 537.04 236.22C530.88 242.37 527.81 250.18 527.81 259.65C527.81 269.12 530.89 276.9 537.04 283.01Z"
            fill="#282828" />
        <path
            d="M684.3 209.95H703.9V309.35H688.99L646.39 248.57V309.35H626.79V209.95H641.68L684.3 270.5V209.95Z"
            fill="#282828" />
        <path
            d="M781.28 209.95H800.88V309.35H785.969L743.37 248.57V309.35H723.77V209.95H738.659L781.28 270.5V209.95Z"
            fill="#282828" />
        <path
            d="M840.36 290.61H882.25V309.35H820.76V209.95H881.54V228.69H840.36V249.85H877.99V268.31H840.36V290.6V290.61Z"
            fill="#282828" />
        <path
            d="M943.87 311.34C928.91 311.34 916.56 306.37 906.81 296.43C897.06 286.49 892.18 274.23 892.18 259.65C892.18 245.07 897.06 232.69 906.81 222.8C916.56 212.91 928.91 207.96 943.87 207.96C952.86 207.96 961.17 210.07 968.79 214.28C976.41 218.49 982.35 224.2 986.61 231.39L969.71 241.19C967.25 236.74 963.75 233.26 959.2 230.75C954.66 228.24 949.54 226.99 943.86 226.99C934.2 226.99 926.42 230.02 920.5 236.08C914.58 242.14 911.62 250 911.62 259.65C911.62 269.3 914.58 277.02 920.5 283.08C926.42 289.14 934.2 292.17 943.86 292.17C949.54 292.17 954.67 290.92 959.27 288.41C963.86 285.9 967.34 282.47 969.71 278.11L986.61 287.91C982.35 295.11 976.43 300.81 968.86 305.02C961.28 309.23 952.96 311.34 943.87 311.34Z"
            fill="#282828" />
        <path
            d="M1065.43 209.95V228.69H1038.59V309.35H1018.99V228.69H992.289V209.95H1065.42H1065.43Z"
            fill="#282828" />
        <path
            d="M1108.88 311.34C1099.03 311.34 1090.75 309.14 1084.03 304.74C1077.31 300.34 1072.57 294.35 1069.83 286.78L1086.59 276.98C1090.47 287.11 1098.09 292.17 1109.45 292.17C1114.94 292.17 1118.96 291.18 1121.52 289.19C1124.08 287.2 1125.35 284.69 1125.35 281.66C1125.35 278.16 1123.79 275.44 1120.66 273.49C1117.54 271.55 1111.95 269.44 1103.9 267.17C1099.45 265.85 1095.69 264.52 1092.61 263.19C1089.53 261.87 1086.45 260.09 1083.38 257.86C1080.3 255.64 1077.96 252.82 1076.35 249.41C1074.74 246 1073.94 242.03 1073.94 237.48C1073.94 228.49 1077.13 221.32 1083.52 215.97C1089.91 210.62 1097.6 207.95 1106.6 207.95C1114.64 207.95 1121.72 209.92 1127.83 213.84C1133.94 217.77 1138.69 223.24 1142.1 230.24L1125.63 239.75C1121.65 231.23 1115.31 226.97 1106.6 226.97C1102.53 226.97 1099.33 227.89 1097.01 229.74C1094.69 231.59 1093.53 233.98 1093.53 236.91C1093.53 240.03 1094.83 242.57 1097.44 244.51C1100.04 246.45 1105.04 248.56 1112.42 250.83C1115.45 251.78 1117.75 252.51 1119.31 253.03C1120.87 253.55 1123 254.36 1125.7 255.44C1128.4 256.53 1130.48 257.55 1131.95 258.49C1133.42 259.44 1135.1 260.72 1136.99 262.32C1138.88 263.93 1140.33 265.59 1141.32 267.29C1142.31 268.99 1143.17 271.05 1143.88 273.47C1144.59 275.89 1144.95 278.51 1144.95 281.35C1144.95 290.53 1141.61 297.82 1134.94 303.22C1128.27 308.62 1119.58 311.31 1108.88 311.31V311.34Z"
            fill="#282828" />
    </g>
    <defs>
        <clipPath id="clip0_307_3982">
            <rect width="1144.95" height="350.64" fill="white" />
        </clipPath>
    </defs>
</svg>