<svg width="75" height="29" viewBox="0 0 75 29" fill="none" xmlns="http://www.w3.org/2000/svg">
    <path
        d="M7.52466 14.61C5.51966 14.61 3.86466 13.944 2.55766 12.612C1.25066 11.28 0.597656 9.63698 0.597656 7.68298C0.597656 5.72898 1.25066 4.07098 2.55766 2.74498C3.86466 1.41898 5.51966 0.755981 7.52466 0.755981C8.72966 0.755981 9.84266 1.03798 10.8647 1.60298C11.8857 2.16798 12.6817 2.93198 13.2527 3.89598L10.9877 5.20898C10.6577 4.61298 10.1887 4.14698 9.57966 3.80998C8.97066 3.47398 8.28566 3.30598 7.52466 3.30598C6.23066 3.30598 5.18666 3.71198 4.39466 4.52398C3.60166 5.33598 3.20565 6.38898 3.20565 7.68298C3.20565 8.97698 3.60166 10.011 4.39466 10.823C5.18766 11.635 6.23066 12.041 7.52466 12.041C8.28566 12.041 8.97366 11.873 9.58966 11.537C10.2047 11.201 10.6707 10.741 10.9887 10.157L13.2537 11.47C12.6827 12.434 11.8897 13.199 10.8747 13.763C9.85966 14.328 8.74366 14.61 7.52566 14.61H7.52466Z"
        fill="#282828" />
    <path
        d="M23.7596 14.343L22.9126 11.945H17.4406L16.6416 14.343H13.8066L18.4686 1.02301H21.7226L26.4216 14.343H23.7596ZM18.2966 9.49101H22.0456L20.1236 4.04901L18.2966 9.49101Z"
        fill="#282828" />
    <path
        d="M35.2123 14.343L32.5193 9.71901H30.5303V14.343H27.9043V1.02301H33.2323C34.4623 1.02301 35.5093 1.45401 36.3723 2.31701C37.2353 3.18001 37.6663 4.22001 37.6663 5.43801C37.6663 6.26301 37.4313 7.02701 36.9623 7.73101C36.4933 8.43501 35.8713 8.96501 35.0973 9.32001L38.0463 14.344H35.2113L35.2123 14.343ZM30.5303 3.47801V7.41701H33.2323C33.7273 7.41701 34.1523 7.22401 34.5073 6.83701C34.8623 6.45001 35.0403 5.98401 35.0403 5.43801C35.0403 4.89201 34.8623 4.42901 34.5073 4.04901C34.1523 3.66801 33.7273 3.47801 33.2323 3.47801H30.5303Z"
        fill="#282828" />
    <path
        d="M42.4062 11.831H48.0203V14.343H39.7812V1.02301H47.9253V3.53501H42.4073V6.37001H47.4502V8.84401H42.4073V11.832L42.4062 11.831Z"
        fill="#282828" />
    <path
        d="M5.76861 28.134C4.27261 28.134 3.03761 27.637 2.06261 26.643C1.08761 25.649 0.599609 24.423 0.599609 22.965C0.599609 21.507 1.08761 20.269 2.06261 19.28C3.03761 18.291 4.27261 17.796 5.76861 17.796C6.66761 17.796 7.49861 18.007 8.26061 18.428C9.02261 18.849 9.61661 19.42 10.0426 20.139L8.35261 21.119C8.10661 20.674 7.75661 20.326 7.30161 20.075C6.84761 19.824 6.33561 19.699 5.76761 19.699C4.80161 19.699 4.02361 20.002 3.43161 20.608C2.83961 21.214 2.54361 22 2.54361 22.965C2.54361 23.93 2.83961 24.702 3.43161 25.308C4.02361 25.914 4.80161 26.217 5.76761 26.217C6.33561 26.217 6.84861 26.092 7.30861 25.841C7.76761 25.59 8.11561 25.247 8.35261 24.811L10.0426 25.791C9.61661 26.511 9.02461 27.081 8.26761 27.502C7.50961 27.923 6.67761 28.134 5.76861 28.134Z"
        fill="#282828" />
    <path
        d="M19.6549 26.636C18.6509 27.635 17.4299 28.134 15.9909 28.134C14.5519 28.134 13.3329 27.635 12.3339 26.636C11.3349 25.637 10.8359 24.414 10.8359 22.965C10.8359 21.516 11.3349 20.293 12.3339 19.294C13.3329 18.295 14.5509 17.796 15.9909 17.796C17.4309 17.796 18.6509 18.295 19.6549 19.294C20.6579 20.293 21.1599 21.516 21.1599 22.965C21.1599 24.414 20.6579 25.637 19.6549 26.636ZM13.7049 25.301C14.3199 25.912 15.0819 26.217 15.9909 26.217C16.8999 26.217 17.6619 25.912 18.2769 25.301C18.8919 24.69 19.1999 23.912 19.1999 22.965C19.1999 22.018 18.8919 21.238 18.2769 20.622C17.6619 20.007 16.8999 19.699 15.9909 19.699C15.0819 19.699 14.3199 20.007 13.7049 20.622C13.0889 21.237 12.7819 22.018 12.7819 22.965C12.7819 23.912 13.0899 24.69 13.7049 25.301Z"
        fill="#282828" />
    <path
        d="M28.4307 17.995H30.3907V27.935H28.8997L24.6397 21.857V27.935H22.6797V17.995H24.1687L28.4307 24.05V17.995Z"
        fill="#282828" />
    <path d="M37.751 18H39.711V27.94H38.22L33.96 21.862V27.94H32V18H33.489L37.751 24.055V18Z"
        fill="#282828" />
    <path
        d="M44.0362 26.061H48.2252V27.935H42.0762V17.995H48.1542V19.869H44.0362V21.985H47.7992V23.831H44.0362V26.06V26.061Z"
        fill="#282828" />
    <path
        d="M54.3878 28.134C52.8918 28.134 51.6568 27.637 50.6818 26.643C49.7068 25.649 49.2188 24.423 49.2188 22.965C49.2188 21.507 49.7068 20.269 50.6818 19.28C51.6568 18.291 52.8918 17.796 54.3878 17.796C55.2867 17.796 56.1177 18.007 56.8797 18.428C57.6417 18.849 58.2357 19.42 58.6617 20.139L56.9718 21.119C56.7258 20.674 56.3758 20.326 55.9208 20.075C55.4668 19.824 54.9547 19.699 54.3867 19.699C53.4207 19.699 52.6428 20.002 52.0508 20.608C51.4588 21.214 51.1628 22 51.1628 22.965C51.1628 23.93 51.4588 24.702 52.0508 25.308C52.6428 25.914 53.4207 26.217 54.3867 26.217C54.9547 26.217 55.4678 26.092 55.9278 25.841C56.3868 25.59 56.7348 25.247 56.9718 24.811L58.6617 25.791C58.2357 26.511 57.6437 27.081 56.8867 27.502C56.1287 27.923 55.2968 28.134 54.3878 28.134Z"
        fill="#282828" />
    <path d="M66.5445 17.995V19.869H63.8605V27.935H61.9005V19.869H59.2305V17.995H66.5435H66.5445Z"
        fill="#282828" />
    <path
        d="M70.8894 28.134C69.9044 28.134 69.0764 27.914 68.4044 27.474C67.7324 27.034 67.2584 26.435 66.9844 25.678L68.6604 24.698C69.0484 25.711 69.8104 26.217 70.9464 26.217C71.4954 26.217 71.8974 26.118 72.1534 25.919C72.4094 25.72 72.5364 25.469 72.5364 25.166C72.5364 24.816 72.3804 24.544 72.0674 24.349C71.7554 24.155 71.1964 23.944 70.3914 23.717C69.9464 23.585 69.5704 23.452 69.2624 23.319C68.9544 23.187 68.6464 23.009 68.3394 22.786C68.0314 22.564 67.7974 22.282 67.6364 21.941C67.4754 21.6 67.3954 21.203 67.3954 20.748C67.3954 19.849 67.7144 19.132 68.3534 18.597C68.9924 18.062 69.7614 17.795 70.6614 17.795C71.4654 17.795 72.1734 17.992 72.7844 18.384C73.3954 18.777 73.8704 19.324 74.2114 20.024L72.5644 20.975C72.1664 20.123 71.5324 19.697 70.6614 19.697C70.2544 19.697 69.9344 19.789 69.7024 19.974C69.4704 20.159 69.3544 20.398 69.3544 20.691C69.3544 21.003 69.4844 21.257 69.7454 21.451C70.0054 21.645 70.5054 21.856 71.2434 22.083C71.5464 22.178 71.7764 22.251 71.9324 22.303C72.0884 22.355 72.3014 22.436 72.5714 22.544C72.8414 22.653 73.0494 22.755 73.1964 22.849C73.3434 22.944 73.5114 23.072 73.7004 23.232C73.8894 23.393 74.0344 23.559 74.1334 23.729C74.2324 23.899 74.3184 24.105 74.3894 24.347C74.4604 24.589 74.4964 24.851 74.4964 25.135C74.4964 26.053 74.1624 26.782 73.4954 27.322C72.8284 27.862 71.9594 28.131 70.8894 28.131V28.134Z"
        fill="#282828" />
</svg>
    