<svg width="36" height="35" viewBox="0 0 36 35" fill="none" xmlns="http://www.w3.org/2000/svg">
    <g clip-path="url(#clip0_317_6230)">
        <path
            d="M28.159 27.498C25.582 30.118 21.998 31.742 18.032 31.742C10.185 31.742 3.822 25.38 3.822 17.532C3.822 9.684 10.185 3.324 18.032 3.324C22.735 3.324 26.905 5.61 29.49 9.13C29.884 9.079 30.286 9.053 30.694 9.053C31.72 9.053 32.708 9.217 33.632 9.522C30.723 3.867 24.83 0 18.032 0C8.349 0 0.5 7.849 0.5 17.532C0.5 27.215 8.349 35.064 18.032 35.064C23.922 35.064 29.131 32.161 32.312 27.707C31.786 27.797 31.245 27.845 30.693 27.845C29.815 27.845 28.965 27.724 28.158 27.498H28.159Z"
            fill="#87D068" />
        <path
            d="M22.6811 23.3569C21.4061 24.3759 19.7911 24.9849 18.0321 24.9849C13.9151 24.9849 10.5781 21.6479 10.5781 17.5309C10.5781 13.4139 13.9151 10.0789 18.0321 10.0789C20.1781 10.0789 22.1121 10.9859 23.4721 12.4389C24.2151 11.5469 25.1201 10.7949 26.1421 10.2269C24.1461 8.00994 21.2521 6.61694 18.0331 6.61694C12.0051 6.61694 7.11914 11.5039 7.11914 17.5309C7.11914 23.5579 12.0061 28.4449 18.0331 28.4449C20.6851 28.4449 23.1161 27.4999 25.0061 25.9259C24.0821 25.2199 23.2911 24.3489 22.6821 23.3559L22.6811 23.3569Z"
            fill="#1677FF" />
        <path
            d="M35.5624 18.513C35.5985 15.8237 33.4477 13.6142 30.7583 13.578C28.0689 13.5419 25.8594 15.6928 25.8233 18.3821C25.7871 21.0715 27.938 23.281 30.6274 23.3172C33.3168 23.3533 35.5262 21.2024 35.5624 18.513Z"
            fill="#1677FF" />
    </g>
    <defs>
        <clipPath id="clip0_317_6230">
            <rect width="35" height="35" fill="white" transform="translate(0.5)" />
        </clipPath>
    </defs>
</svg>